<?xml version="1.0" encoding="UTF-8" standalone="no"?>
<!-- Created with Inkscape (http://www.inkscape.org/) -->

<svg
   xmlns:dc="http://purl.org/dc/elements/1.1/"
   xmlns:cc="http://creativecommons.org/ns#"
   xmlns:rdf="http://www.w3.org/1999/02/22-rdf-syntax-ns#"
   xmlns:svg="http://www.w3.org/2000/svg"
   xmlns="http://www.w3.org/2000/svg"
   xmlns:sodipodi="http://sodipodi.sourceforge.net/DTD/sodipodi-0.dtd"
   xmlns:inkscape="http://www.inkscape.org/namespaces/inkscape"
   width="50"
   height="50"
   id="svg2"
   version="1.1"
   inkscape:version="0.48.4 r9939"
   sodipodi:docname="github_logo2.svg">
  <defs
     id="defs4" />
  <sodipodi:namedview
     id="base"
     pagecolor="#ffffff"
     bordercolor="#666666"
     borderopacity="1.0"
     inkscape:pageopacity="0.0"
     inkscape:pageshadow="2"
     inkscape:zoom="3.959798"
     inkscape:cx="32.497621"
     inkscape:cy="61.463341"
     inkscape:document-units="px"
     inkscape:current-layer="layer1"
     showgrid="false"
     inkscape:window-width="1280"
     inkscape:window-height="962"
     inkscape:window-x="792"
     inkscape:window-y="-8"
     inkscape:window-maximized="1"
     fit-margin-top="0"
     fit-margin-left="0"
     fit-margin-right="0"
     fit-margin-bottom="0" />
  <metadata
     id="metadata7">
    <rdf:RDF>
      <cc:Work
         rdf:about="">
        <dc:format>image/svg+xml</dc:format>
        <dc:type
           rdf:resource="http://purl.org/dc/dcmitype/StillImage" />
        <dc:title></dc:title>
      </cc:Work>
    </rdf:RDF>
  </metadata>
  <g
     inkscape:label="Layer 1"
     inkscape:groupmode="layer"
     id="layer1"
     transform="translate(-119.51722,-764.52983)">
    <g
       transform="matrix(0.0969294,0,0,0.0969294,119.67482,764.7158)"
       id="5151e0c8492e5103c096af88a5006e1e">
      <g
         id="g5" />
      <path
         inkscape:connector-curvature="0"
         style="fill:#ffffff;fill-opacity:1;display:inline"
         d="m 114.08,252 c -1.487,-2.974 -2.83,-6.053 -4.019,-9.228 -20.94,-0.182 -93.022372,6.46796 -107.521,8.25 -1.5027458,0.1847 -3.22515051,-2.40924 -3.245,-4.24372 -0.0419034,-3.87267 1.33722652,-3.81184 3.9732288,-5.0202 2.6360023,-1.20836 81.7026282,-7.53065 103.9956312,-7.47265 -5.017,-14.753 -5.62586,-26.47643 -5.62586,-45.34443 0,-33.516 10.437,-46.159 24.46,-64.02 -10.724,-38.197 3.847,-64.307 3.847,-64.307 0,0 22.533,-4.671 65.132,25.832 23.089,-9.89 84.647,-10.714 113.77,-2.196 17.88,-11.818 50.571,-28.585 63.77,-23.895 3.568,5.755 11.262,22.513 4.662,59.348 4.489,8.077 27.761,25.286 27.856,73.928 -0.384,17.938 -0.22469,26.26547 -3.67769,39.08047 55.54,-0.47 86.37026,5.84424 108.87326,9.98824 0.883,0.182 5.228,1.12529 3.46686,5.053 -0.86729,5.07272 -3.16543,3.31729 -3.93243,3.31729 -0.115,0 -0.211,-0.009 -0.326,-0.019 -22.466,-4.163 -55.194,-8.729 -111.061,-8.221 -0.979,3.252 -2.072,6.341 -3.262,9.286 19.013,0.633 71.94729,-1.79729 114.53729,11.22871 2.66871,2.94758 0.64771,5.65329 0.37971,6.53629 -0.211,0.7 -0.863,1.16 -1.573,1.16 -0.153,0 -0.326,-0.019 -0.479,-0.076 -43.185,-13.199 -100.07353,-7.94093 -117.81853,-8.52693 -15.444,33.929 -43.58247,39.51893 -94.78647,44.78493 16.595,10.446 21.353,23.548 21.353,59.003 0,35.453 -0.479,40.211 -0.364,48.363 0.173,13.383 19.779,19.789 19.051,24.096 -0.729,4.299 -16.403,3.607 -23.731,1.047 -20.758,-7.232 -18.687,-24.5 -18.687,-24.5 l -0.69,-47.404 c 0,0 1.42,-25.516 -8,-25.516 0,5.131 0,59.242 0,77.592 0,16.863 11.799,21.986 11.799,28.221 0,10.715 -21.563,-1.016 -28.202,-7.703 -10.134,-10.168 -8.982,-31.73 -8.733,-48.785 0.23,-16.471 -0.153,-52.49 -0.153,-52.49 l -6.877,0.145 c 0,0 2.82,78.686 -3.626,93.025 -8.335,18.408 -33.477,24.74 -33.477,16.355 0,-5.641 6.196,-3.846 9.621,-16.488 2.925,-10.754 1.928,-90.975 1.928,-90.975 0,0 -8.057,4.768 -8.057,19.789 0,6.877 -0.192,46.158 -0.192,57.852 0,14.705 -20.883,23.078 -30.917,23.078 -5.084,0 -11.405,-0.248 -11.405,-2.943 0,-6.801 19.099,-10.793 19.099,-24.941 0,-12.268 -0.269,-43.826 -0.269,-43.826 0,0 -9.631,1.648 -23.367,1.648 -34.628,0 -45.583,-22.1 -50.792,-34.465 -6.782,-16.105 -15.578,-23.673 -24.921,-29.717 -5.736,-3.712 -7.06,-8.096 -0.422,-9.343 30.657,-5.774 38.494,34.763 58.964,41.218 14.609,4.615 33.391,2.619 42.734,-3.424 1.238,-12.385 10.159,-23.089 17.593,-28.729 -52.067,-4.998 -80.97171,-17.18614 -96.97171,-46.25214 -54.466004,1.305 -85.729147,9.036 -108.3861471,14.695 -5.1536621,0.27011 -8.2480935,1.06772 -10.03428576,-1.42857 C -2.4423351,271.924 -1.9040102,269.35161 2.16,267.951 6.2240102,266.55039 82.795033,252.9791 114.08,252 z"
         display="inline"
         id="XMLID_1_"
         sodipodi:nodetypes="ccsszcsccccccccccscccccscccsccccccsscccccsccssssscscccccccczzc" />
    </g>
  </g>
</svg>
