<?xml version="1.0" encoding="UTF-8" standalone="no"?>
<!-- Created with Inkscape (http://www.inkscape.org/) -->
<svg xmlns:rdf="http://www.w3.org/1999/02/22-rdf-syntax-ns#" xmlns="http://www.w3.org/2000/svg" height="50" width="50" version="1.1" xmlns:cc="http://creativecommons.org/ns#" xmlns:dc="http://purl.org/dc/elements/1.1/">
	<metadata>
		<rdf:RDF>
			<cc:Work rdf:about="">
				<dc:format>image/svg+xml</dc:format>				<dc:type rdf:resource="http://purl.org/dc/dcmitype/StillImage"/>				<dc:title/>
			</cc:Work>
		</rdf:RDF>
	</metadata>	<g transform="translate(-119.51722,-764.52983)">
		<g transform="matrix(0.0969294,0,0,0.0969294,119.67482,764.7158)">
			<path d="m114.08,252c-1.487-2.974-2.83-6.053-4.019-9.228-20.94-0.182-93.022,6.468-107.52,8.25-1.5027,0.1847-3.2252-2.4092-3.245-4.2437-0.041903-3.8727,1.3372-3.8118,3.9732-5.0202s81.703-7.5306,104-7.4726c-5.017-14.753-5.6259-26.476-5.6259-45.344,0-33.516,10.437-46.159,24.46-64.02-10.724-38.197,3.847-64.307,3.847-64.307s22.533-4.671,65.132,25.832c23.089-9.89,84.647-10.714,113.77-2.196,17.88-11.818,50.571-28.585,63.77-23.895,3.568,5.755,11.262,22.513,4.662,59.348,4.489,8.077,27.761,25.286,27.856,73.928-0.384,17.938-0.22469,26.265-3.6777,39.08,55.54-0.47,86.37,5.8442,108.87,9.9882,0.883,0.182,5.228,1.1253,3.4669,5.053-0.86729,5.0727-3.1654,3.3173-3.9324,3.3173-0.115,0-0.211-0.009-0.326-0.019-22.466-4.163-55.194-8.729-111.06-8.221-0.979,3.252-2.072,6.341-3.262,9.286,19.013,0.633,71.947-1.7973,114.54,11.229,2.6687,2.9476,0.64771,5.6533,0.37971,6.5363-0.211,0.7-0.863,1.16-1.573,1.16-0.153,0-0.326-0.019-0.479-0.076-43.185-13.199-100.07-7.9409-117.82-8.5269-15.444,33.929-43.582,39.519-94.786,44.785,16.595,10.446,21.353,23.548,21.353,59.003,0,35.453-0.479,40.211-0.364,48.363,0.173,13.383,19.779,19.789,19.051,24.096-0.729,4.299-16.403,3.607-23.731,1.047-20.758-7.232-18.687-24.5-18.687-24.5l-0.69-47.404s1.42-25.516-8-25.516v77.592c0,16.863,11.799,21.986,11.799,28.221,0,10.715-21.563-1.016-28.202-7.703-10.134-10.168-8.982-31.73-8.733-48.785,0.23-16.471-0.153-52.49-0.153-52.49l-6.877,0.145s2.82,78.686-3.626,93.025c-8.335,18.408-33.477,24.74-33.477,16.355,0-5.641,6.196-3.846,9.621-16.488,2.925-10.754,1.928-90.975,1.928-90.975s-8.057,4.768-8.057,19.789c0,6.877-0.192,46.158-0.192,57.852,0,14.705-20.883,23.078-30.917,23.078-5.084,0-11.405-0.248-11.405-2.943,0-6.801,19.099-10.793,19.099-24.941,0-12.268-0.269-43.826-0.269-43.826s-9.631,1.648-23.367,1.648c-34.628,0-45.583-22.1-50.792-34.465-6.782-16.105-15.578-23.673-24.921-29.717-5.736-3.712-7.06-8.096-0.422-9.343,30.657-5.774,38.494,34.763,58.964,41.218,14.609,4.615,33.391,2.619,42.734-3.424,1.238-12.385,10.159-23.089,17.593-28.729-52.067-4.998-80.972-17.186-96.972-46.252-54.466,1.305-85.729,9.036-108.39,14.695-5.1537,0.27011-8.2481,1.0677-10.034-1.4286-1.7783-2.55-1.24-5.12,2.824-6.52s80.635-14.97,111.92-15.95z" display="inline" fill="#FFF"/>
		</g>
	</g>
</svg>
