<?xml version="1.0" encoding="UTF-8" standalone="no"?>
<svg
   xmlns:dc="http://purl.org/dc/elements/1.1/"
   xmlns:cc="http://creativecommons.org/ns#"
   xmlns:rdf="http://www.w3.org/1999/02/22-rdf-syntax-ns#"
   xmlns:svg="http://www.w3.org/2000/svg"
   xmlns="http://www.w3.org/2000/svg"
   xmlns:sodipodi="http://sodipodi.sourceforge.net/DTD/sodipodi-0.dtd"
   xmlns:inkscape="http://www.inkscape.org/namespaces/inkscape"
   height="134.703"
   width="140.92097"
   version="1.0"
   id="svg2"
   inkscape:version="0.48.4 r9939"
   sodipodi:docname="Linkedin.svg">
  <metadata
     id="metadata21">
    <rdf:RDF>
      <cc:Work
         rdf:about="">
        <dc:format>image/svg+xml</dc:format>
        <dc:type
           rdf:resource="http://purl.org/dc/dcmitype/StillImage" />
        <dc:title></dc:title>
      </cc:Work>
    </rdf:RDF>
  </metadata>
  <sodipodi:namedview
     pagecolor="#ffffff"
     bordercolor="#666666"
     borderopacity="1"
     objecttolerance="10"
     gridtolerance="10"
     guidetolerance="10"
     inkscape:pageopacity="0"
     inkscape:pageshadow="2"
     inkscape:window-width="1280"
     inkscape:window-height="962"
     id="namedview19"
     showgrid="false"
     inkscape:zoom="1.668772"
     inkscape:cx="80.006984"
     inkscape:cy="45.784215"
     inkscape:window-x="792"
     inkscape:window-y="-8"
     inkscape:window-maximized="1"
     inkscape:current-layer="svg2"
     fit-margin-top="0"
     fit-margin-left="0"
     fit-margin-right="0"
     fit-margin-bottom="0" />
  <defs
     id="defs4">
    <linearGradient
       id="linearGradient3003"
       y2="425.39999"
       gradientUnits="userSpaceOnUse"
       x2="-395.85001"
       gradientTransform="matrix(-0.50335197,0,0,0.50335205,-148.17928,-158.80197)"
       y1="274.70999"
       x1="-344.14999">
      <stop
         stop-color="#FFF"
         offset="0"
         id="stop7" />
      <stop
         stop-color="#FFF"
         stop-opacity="0"
         offset="1"
         id="stop9" />
    </linearGradient>
  </defs>
  <path
     d="m 31.99,134.703 0,-90.884 -30.208,0 0,90.884 30.208,0 z m -15.1,-103.3 c 10.534,0 17.091,-6.9789 17.091,-15.7 C 33.78468,6.7851 27.4244,0 17.09,0 6.757,0 0,6.7852 0,15.703 c 0,8.7216 6.5553,15.7 16.693,15.7 h 0.19633 z"
     id="path15"
     inkscape:connector-curvature="0"
     style="fill:#ffffff" />
  <path
     d="m 48.71,134.703 30.208,0 0,-50.754 c 0,-2.7163 0.19632,-5.4298 0.99398,-7.3715 2.1838,-5.4271 7.1542,-11.048 15.499,-11.048 10.931,0 15.304,8.3343 15.304,20.552 v 48.621 h 30.206 v -52.112 c 0,-27.916 -14.903,-40.905 -34.778,-40.905 -16.296,0 -23.451,9.1089 -27.426,15.313 h 0.2017 v -13.181 h -30.208 c 0.39641,8.528 0,90.884 0,90.884 z"
     id="path17"
     inkscape:connector-curvature="0"
     style="fill:#ffffff" />
</svg>
