<?xml version="1.0" encoding="UTF-8" standalone="no"?>
<!-- Created with Inkscape (http://www.inkscape.org/) -->

<svg
   xmlns:dc="http://purl.org/dc/elements/1.1/"
   xmlns:cc="http://creativecommons.org/ns#"
   xmlns:rdf="http://www.w3.org/1999/02/22-rdf-syntax-ns#"
   xmlns:svg="http://www.w3.org/2000/svg"
   xmlns="http://www.w3.org/2000/svg"
   xmlns:sodipodi="http://sodipodi.sourceforge.net/DTD/sodipodi-0.dtd"
   xmlns:inkscape="http://www.inkscape.org/namespaces/inkscape"
   width="50"
   height="50"
   id="svg3790"
   version="1.1"
   inkscape:version="0.48.4 r9939"
   sodipodi:docname="projects_icon.svg">
  <defs
     id="defs3792" />
  <sodipodi:namedview
     id="base"
     pagecolor="#ffffff"
     bordercolor="#666666"
     borderopacity="1.0"
     inkscape:pageopacity="0.0"
     inkscape:pageshadow="2"
     inkscape:zoom="3.959798"
     inkscape:cx="8.7925932"
     inkscape:cy="51.195863"
     inkscape:document-units="px"
     inkscape:current-layer="layer1"
     showgrid="false"
     fit-margin-top="0"
     fit-margin-left="0"
     fit-margin-right="0"
     fit-margin-bottom="0"
     inkscape:window-width="1280"
     inkscape:window-height="962"
     inkscape:window-x="792"
     inkscape:window-y="-8"
     inkscape:window-maximized="1" />
  <metadata
     id="metadata3795">
    <rdf:RDF>
      <cc:Work
         rdf:about="">
        <dc:format>image/svg+xml</dc:format>
        <dc:type
           rdf:resource="http://purl.org/dc/dcmitype/StillImage" />
        <dc:title></dc:title>
      </cc:Work>
    </rdf:RDF>
  </metadata>
  <g
     inkscape:label="Layer 1"
     inkscape:groupmode="layer"
     id="layer1"
     transform="translate(-531.95871,-272.04548)">
    <path
       style="fill:#ffffff;fill-opacity:1;stroke:none"
       d="m 570.36958,272.04999 c -2.77867,0.0784 -5.5348,1.18197 -7.64832,3.29556 -3.37976,3.37725 -4.16302,8.39743 -2.34059,12.53452 l -27.23604,27.22819 c -1.58122,1.58263 -1.58122,4.16963 0,5.75019 1.58128,1.58271 4.16076,1.58271 5.7451,0 l 27.24786,-27.23955 c 4.1333,1.82133 9.14809,1.04761 12.53047,-2.32963 2.81496,-2.81856 3.82458,-6.77528 3.02623,-10.40944 l -3.35722,3.36375 -0.82749,0.81821 -2.55338,2.5569 -3.41632,-0.86366 -3.41633,-0.86367 -1.72589,-6.84114 3.36904,-3.37511 1.73771,-1.72733 1.63133,-1.63642 c -0.90821,-0.19986 -1.83994,-0.28751 -2.76616,-0.26137 z m -34.31694,43.6492 c 1.2846,0 2.32878,1.00379 2.32878,2.23871 0,1.23492 -1.04418,2.23871 -2.32878,2.23871 -1.28459,0 -2.32877,-1.00379 -2.32877,-2.23871 0,-1.23492 1.04418,-2.23871 2.32877,-2.23871 z"
       id="path3151"
       inkscape:connector-curvature="0" />
  </g>
</svg>
