<svg 	xmlns:rdf="http://www.w3.org/1999/02/22-rdf-syntax-ns#"	xmlns="http://www.w3.org/2000/svg" height="50" width="50"	version="1.1" 	xmlns:cc="http://creativecommons.org/ns#" 	xmlns:dc="http://purl.org/dc/elements/1.1/"	width: "50"	height: "50"	preserveAspectRatio="xMinYMin meet" 	viewBox="0 0 50 50"   	class="{{class}}">
	<g transform="translate(-72.364368,-823.07379)">
		<g stroke-miterlimit="4" stroke="#FFF" transform="matrix(0.06650153,0,0,0.06650153,71.052027,815.01306)">
			<g transform="translate(11.096604,-11.456237)">
				<path d="m358.45,388.88c-0.09,6.3598-5.3187,11.442-11.678,11.352-6.3598-0.09-11.442-5.3186-11.352-11.678,0.09-6.3598,5.3186-11.442,11.678-11.352,6.3109,0.0894,11.374,5.2417,11.353,11.553" fill-rule="nonzero" transform="matrix(4.214,0,0,4.214,-1079.57,-1255.78)" stroke-linecap="round" stroke-width="1.25000000000000000" fill="#FFF"/>
				<path stroke-linejoin="miter" d="m238.9,800.82h270.78" stroke-linecap="butt" stroke-width="25.58889960999999900" fill="none"/>
				<path stroke-linejoin="miter" d="m290.99,730.82h182.67" stroke-linecap="butt" stroke-dasharray="none" stroke-width="25.58900070000000000" fill="none"/>
				<path d="m642.82,370.75c163.37,129.23,191.05,366.43,61.826,529.8-28.038,35.446-62.218,65.565-100.91,88.919" transform="matrix(0.67615,0,0,0.67615,105.988,-69.6004)" stroke-linecap="round" stroke-dasharray="none" stroke-width="37.84515380999999900" fill="none"/>
				<path stroke-linejoin="miter" d="m381.22,377.49v1.201c0,31.767,7.396,308.44-200.5,489.84" stroke-linecap="butt" stroke-width="31.98609924000000100" fill="none"/>
				<path stroke-linejoin="miter" d="m380.64,376.89v1.2c0,31.767-7.396,308.44,200.5,489.85" stroke-linecap="butt" stroke-width="31.98609924000000100" fill="none"/>
				<path d="m659.81,385.01c155.49,138.61,169.18,377.02,30.575,532.52-20.281,22.752-43.246,42.962-68.391,60.188" transform="matrix(0.834002,0,0,0.834002,42.4985,-175.639)" stroke-linecap="round" stroke-dasharray="none" stroke-width="30.68218040000000000" fill="none"/>
				<path stroke-linejoin="miter" style="color:#000000;" d="m559.42,478.01c104.13,82.37,121.78,233.56,39.408,337.7-17.871,22.594-39.658,41.791-64.321,56.677" display="block" transform="matrix(0.834002,0,0,0.834002,41.4526,-174.818)" stroke-dashoffset="0" stroke-linecap="round" stroke-dasharray="none" stroke-width="30.68218040000000000" fill="none"/>
				<path stroke-linejoin="miter" style="color:#000000;" d="m520.33,532.51c74.827,59.188,87.505,167.83,28.317,242.66-12.842,16.235-28.497,30.03-46.219,40.726" display="block" transform="matrix(0.834002,0,0,0.834002,41.4526,-174.818)" stroke-dashoffset="0" stroke-linecap="round" stroke-dasharray="none" stroke-width="30.68218040000000000" fill="none"/>
				<path stroke-linejoin="miter" style="color:#000000;" d="m485.3,571.72c52.379,41.432,61.254,117.48,19.822,169.86-8.9892,11.364-19.948,21.021-32.353,28.508" display="block" transform="matrix(0.834002,0,0,0.834002,41.4526,-174.818)" stroke-dashoffset="0" stroke-linecap="round" stroke-dasharray="none" stroke-width="30.68218040000000000" fill="none"/>
				<path d="m642.82,370.75c163.37,129.23,191.05,366.43,61.826,529.8-28.038,35.446-62.218,65.565-100.91,88.919" transform="matrix(-0.67615,0,0,0.67615,666.104,-69.1222)" stroke-linecap="round" stroke-dasharray="none" stroke-width="37.84515380999999900" fill="none"/>
				<path d="m659.81,385.01c155.49,138.61,169.18,377.02,30.575,532.52-20.281,22.752-43.246,42.962-68.391,60.188" transform="matrix(-0.834002,0,0,0.834002,729.594,-175.161)" stroke-linecap="round" stroke-dasharray="none" stroke-width="30.68218040000000000" fill="none"/>
				<path stroke-linejoin="miter" style="color:#000000;" d="m559.42,478.01c104.13,82.37,121.78,233.56,39.408,337.7-17.871,22.594-39.658,41.791-64.321,56.677" display="block" transform="matrix(-0.834002,0,0,0.834002,730.642,-174.34)" stroke-dashoffset="0" stroke-linecap="round" stroke-dasharray="none" stroke-width="30.68218040000000000" fill="none"/>
				<path stroke-linejoin="miter" style="color:#000000;" d="m520.33,532.51c74.827,59.188,87.505,167.83,28.317,242.66-12.842,16.235-28.497,30.03-46.219,40.726" display="block" transform="matrix(-0.834002,0,0,0.834002,730.642,-174.34)" stroke-dashoffset="0" stroke-linecap="round" stroke-dasharray="none" stroke-width="30.68218040000000000" fill="none"/>
				<path stroke-linejoin="miter" style="color:#000000;" d="m485.3,571.72c52.379,41.432,61.254,117.48,19.822,169.86-8.9892,11.364-19.948,21.021-32.353,28.508" display="block" transform="matrix(-0.834002,0,0,0.834002,730.642,-174.34)" stroke-dashoffset="0" stroke-linecap="round" stroke-dasharray="none" stroke-width="30.68218040000000000" fill="none"/>
			</g>
			<path stroke-linejoin="miter" d="m339.41,649.36,104.05,0" stroke-linecap="butt" stroke-dasharray="none" stroke-width="25.58900070000000000" fill="none"/>
		</g>
	</g>
</svg>
