<svg xmlns:rdf="http://www.w3.org/1999/02/22-rdf-syntax-ns#"	xmlns="http://www.w3.org/2000/svg" 	version="1.1" 	xmlns:cc="http://creativecommons.org/ns#" 	xmlns:dc="http://purl.org/dc/elements/1.1/"   	width: "50"   	height: "50"	preserveAspectRatio="xMinYMin meet"	viewBox="0 0 50 50"	class="{{class}}"	style="fill:rgb({{r}}, {{g}}, {{b}});stroke:rgb({{r}}, {{g}}, {{b}});fill-opacity:{{a}};stroke-opacity:{{a}};">
	<g transform="translate(-72.364368,-823.07379)">
		<g stroke-miterlimit="4" transform="matrix(0.06650153,0,0,0.06650153,71.052027,815.01306)">
			<g stroke-linecap="round" stroke-dasharray="none" transform="translate(11.096604,-11.456237)" fill="none">
				<path d="m642.82,370.75c163.37,129.23,191.05,366.43,61.826,529.8-28.038,35.446-62.218,65.565-100.91,88.919" transform="matrix(0.67615,0,0,0.67615,105.988,-69.6004)" stroke-width="37.84515380999999900"/>
				<path d="m659.81,385.01c155.49,138.61,169.18,377.02,30.575,532.52-20.281,22.752-43.246,42.962-68.391,60.188" transform="matrix(0.834002,0,0,0.834002,42.4985,-175.639)" stroke-width="30.68218040000000000"/>
				<path stroke-linejoin="miter" d="m559.42,478.01c104.13,82.37,121.78,233.56,39.408,337.7-17.871,22.594-39.658,41.791-64.321,56.677" stroke-dashoffset="0" transform="matrix(0.834002,0,0,0.834002,41.4526,-174.818)" stroke-width="30.68218040000000000" display="block"/>
				<path stroke-linejoin="miter" d="m520.33,532.51c74.827,59.188,87.505,167.83,28.317,242.66-12.842,16.235-28.497,30.03-46.219,40.726" stroke-dashoffset="0" transform="matrix(0.834002,0,0,0.834002,41.4526,-174.818)" stroke-width="30.68218040000000000" display="block"/>
				<path stroke-linejoin="miter" d="m485.3,571.72c52.379,41.432,61.254,117.48,19.822,169.86-8.9892,11.364-19.948,21.021-32.353,28.508" stroke-dashoffset="0" transform="matrix(0.834002,0,0,0.834002,41.4526,-174.818)" stroke-width="30.68218040000000000" display="block"/>
				<path d="m642.82,370.75c163.37,129.23,191.05,366.43,61.826,529.8-28.038,35.446-62.218,65.565-100.91,88.919" transform="matrix(-0.67615,0,0,0.67615,666.104,-69.1222)" stroke-width="37.84515380999999900"/>
				<path d="m659.81,385.01c155.49,138.61,169.18,377.02,30.575,532.52-20.281,22.752-43.246,42.962-68.391,60.188" transform="matrix(-0.834002,0,0,0.834002,729.594,-175.161)" stroke-width="30.68218040000000000"/>
				<path stroke-linejoin="miter" d="m559.42,478.01c104.13,82.37,121.78,233.56,39.408,337.7-17.871,22.594-39.658,41.791-64.321,56.677" stroke-dashoffset="0" transform="matrix(-0.834002,0,0,0.834002,730.642,-174.34)" stroke-width="30.68218040000000000" display="block"/>
				<path stroke-linejoin="miter" d="m520.33,532.51c74.827,59.188,87.505,167.83,28.317,242.66-12.842,16.235-28.497,30.03-46.219,40.726" stroke-dashoffset="0" transform="matrix(-0.834002,0,0,0.834002,730.642,-174.34)" stroke-miterlimit="4" stroke-width="30.68745173" display="block"/>
				<path stroke-linejoin="miter" d="m485.3,571.72c52.379,41.432,61.254,117.48,19.822,169.86-8.9892,11.364-19.948,21.021-32.353,28.508" stroke-dashoffset="0" transform="matrix(-0.834002,0,0,0.834002,730.642,-174.34)" stroke-width="30.68218040000000000" display="block"/>
			</g>
			<path style="baseline-shift:baseline;block-progression:tb;direction:ltr;enable-background:accumulate;" d="m380.34,370.25c0.0566,162.39-60.971,359.73-196.91,477.16l16.75,19.344c22.791-19.687,43.518-41.366,62.281-64.594h265.63l-7.3214-1.8438c18.923,23.688,39.902,45.809,63.094,65.844l16.73-19.35c-135.88-117.38-194.71-314.66-194.65-476.56zm12.66,136.41c7.9674,43.525,19.816,87.369,35.969,129.91h-72.531c16.37-42.53,28.41-86.36,36.56-129.91zm-47.094,155.5,93.438,0c6.4164,15.038,13.327,29.872,20.875,44.406h-135.44c7.6174-14.535,14.63-29.366,21.125-44.406zm-35.281,70,163.62,0c8.8508,15.221,18.376,30.055,28.594,44.406h-220.94c10.26-14.35,19.804-29.187,28.719-44.406zm131.41-361.18c0.0885-26.596-21.247-48.308-47.842-48.684-26.799-0.37926-48.832,21.037-49.211,47.837-0.37926,26.799,21.037,48.832,47.837,49.211,26.798,0.37926,48.832-21.037,49.211-47.837"/>
		</g>
	</g>
</svg>
