<svg 	xmlns:rdf="http://www.w3.org/1999/02/22-rdf-syntax-ns#"	 xmlns="http://www.w3.org/2000/svg" height="50" width="50" 	 version="1.1" xmlns:cc="http://creativecommons.org/ns#" 	 xmlns:dc="http://purl.org/dc/elements/1.1/"	width: "50"	height: "50"	preserveAspectRatio="xMinYMin meet"	viewBox="0 0 50 50"   class="{{class}}">
	<metadata>
		<rdf:RDF>
			<cc:Work rdf:about="">
				<dc:format>image/svg+xml</dc:format>				<dc:type rdf:resource="http://purl.org/dc/dcmitype/StillImage"/>				<dc:title/>
			</cc:Work>
		</rdf:RDF>
	</metadata>	<g transform="translate(-531.95871,-272.04548)">
		<path fill="#FFF" d="m570.37,272.05c-2.7787,0.0784-5.5348,1.182-7.6483,3.2956-3.3798,3.3772-4.163,8.3974-2.3406,12.535l-27.236,27.228c-1.5812,1.5826-1.5812,4.1696,0,5.7502,1.5813,1.5827,4.1608,1.5827,5.7451,0l27.248-27.24c4.1333,1.8213,9.1481,1.0476,12.53-2.3296,2.815-2.8186,3.8246-6.7753,3.0262-10.409l-3.3572,3.3638-0.82749,0.81821-2.5534,2.5569-3.4163-0.86366-3.4163-0.86367-1.7259-6.8411,3.369-3.3751,1.7377-1.7273,1.6313-1.6364c-0.90821-0.19986-1.8399-0.28751-2.7662-0.26137zm-34.317,43.649c1.2846,0,2.3288,1.0038,2.3288,2.2387s-1.0442,2.2387-2.3288,2.2387-2.3288-1.0038-2.3288-2.2387,1.0442-2.2387,2.3288-2.2387z"/>
	</g>
</svg>
