<?xml version="1.0" encoding="UTF-8" standalone="no"?>
<!-- Created with Inkscape (http://www.inkscape.org/) -->
<svg xmlns:inkscape="http://www.inkscape.org/namespaces/inkscape" xmlns:rdf="http://www.w3.org/1999/02/22-rdf-syntax-ns#" xmlns="http://www.w3.org/2000/svg" sodipodi:docname="icesoap.svg" xmlns:osb="http://www.openswatchbook.org/uri/2009/osb" height="309.44" width="280.57" version="1.1" xmlns:cc="http://creativecommons.org/ns#" xmlns:sodipodi="http://sodipodi.sourceforge.net/DTD/sodipodi-0.dtd" inkscape:version="0.48.4 r9939" xmlns:dc="http://purl.org/dc/elements/1.1/">
	<defs></defs>
	<sodipodi:namedview fit-margin-left="0" inkscape:zoom="1.4" borderopacity="1.0" inkscape:current-layer="layer3" inkscape:cx="223.15215" inkscape:cy="116.63998" borderlayer="true" inkscape:window-maximized="1" showgrid="true" fit-margin-right="0" inkscape:document-units="px" bordercolor="#666666" inkscape:window-x="792" inkscape:window-y="-8" fit-margin-bottom="0" inkscape:window-width="1280" inkscape:pageopacity="0.0" inkscape:pageshadow="2" pagecolor="#ffffff" inkscape:window-height="962" fit-margin-top="0">
		<inkscape:grid originy="-727.15198px" enabled="true" originx="-30.595698px" visible="true" snapvisiblegridlinesonly="true" type="xygrid" empspacing="5"/>
	</sodipodi:namedview>
	<metadata>
		<rdf:RDF>
			<cc:Work rdf:about="">
				<dc:format>image/svg+xml</dc:format>
				<dc:type rdf:resource="http://purl.org/dc/dcmitype/StillImage"/>
				<dc:title/>
			</cc:Work>
		</rdf:RDF>
	</metadata>
	<g stroke-linejoin="round" transform="translate(-30.595698,-15.770777)" inkscape:groupmode="layer" stroke="#333" stroke-linecap="butt" stroke-dasharray="none" stroke-width="8" inkscape:label="Envelope TopSides">
		<path d="m35.024,321.21,272.14,0,0-181.43-127-90.714-18.143,0-127,90.714z" sodipodi:nodetypes="ccccccc" inkscape:connector-curvature="0" stroke-miterlimit="0" fill="#FFF"/>
		<path d="m35,142.36,270,0" sodipodi:nodetypes="cc" inkscape:connector-curvature="0" stroke-miterlimit="4" fill="none"/>
	</g>
	<g inkscape:label="Snowflake" inkscape:groupmode="layer" transform="translate(-30.595698,-15.770777)">
		<g stroke-linejoin="round" transform="matrix(1.3727579,-0.03219059,0.03219059,1.3727579,24.379401,1.5151312)" stroke="#69afff" stroke-linecap="round" stroke-miterlimit="4" stroke-dasharray="none" fill="none">
			<path d="m77.535,134.83,10.769,6.4912,0.43545,12.622-13.68,6.928,4.628,10.605,16.302-9.0493,0.41565,14.661-13.298,8.5072,5.6545,8.7714,13.521-9.4199,12.43,8.7121,6.0789-8.7557-11.519-7.4224-0.0832-14.43,14.351,8.0747,5.5586-8.9527-12.381-7.3638,0.51122-12.211,10.931-6.0442" sodipodi:nodetypes="ccccccccccccccccccc" inkscape:transform-center-y="56.67138" inkscape:connector-curvature="0" stroke-width="5.82608271" inkscape:transform-center-x="9.349818"/>
			<path sodipodi:sides="6" inkscape:flatsided="true" stroke-width="5.82608318" transform="matrix(0.9841075,-0.1775737,0.1775737,0.9841075,-14.33106,21.665214)" inkscape:rounded="0" sodipodi:r1="41.66539" sodipodi:r2="33.447243" sodipodi:arg1="1.7178747" sodipodi:arg2="2.2414734" sodipodi:type="star" d="M95.406,144.64,62.766,118.74,68.872,77.525l38.747-15.32,32.641,25.896-6.106,41.216z" inkscape:randomized="0" sodipodi:cy="103.42049" sodipodi:cx="101.51237"/>
			<path d="m130.55,75.632-10.769-6.4912-0.43545-12.621,13.68-6.928-4.628-10.605-16.302,9.0493-0.41565-14.661,13.298-8.5072-5.6545-8.7714-13.521,9.4199-12.43-8.7121-6.0789,8.7557,11.519,7.4224,0.08316,14.43-14.351-8.0747-5.5587,8.9527,12.381,7.3638-0.32343,12.177-9.9058,5.2775" inkscape:transform-center-x="-9.3498233" inkscape:transform-center-y="-56.671378" inkscape:connector-curvature="0" stroke-width="5.82608271" sodipodi:nodetypes="ccccccccccccccccccc"/>
			<path d="m91.658,67.478-11.006,6.0807-11.148-5.9336,0.84009-15.311-11.498-1.2943-0.31427,18.643-12.905-6.9705-0.71848-15.77-10.423,0.51126,1.3974,16.419-13.76,6.4087,4.5432,9.6424,12.187-6.2643,12.538,7.143-14.168,8.391,4.9739,9.2903,12.568-7.0401,10.642,6.5157-0.41608,12.288" sodipodi:nodetypes="ccccccccccccccccccc" inkscape:transform-center-y="-34.481042" inkscape:connector-curvature="0" stroke-width="5.82608271" inkscape:transform-center-x="39.943696"/>
			<path d="m116.42,142.99,11.006-6.0807,11.148,5.9336-0.84009,15.311,11.498,1.2943,0.31427-18.643,12.905,6.9705,0.71848,15.77,10.423-0.51126-1.3974-16.419,13.76-6.4087-4.5432-9.6424-12.187,6.2644-12.538-7.143,14.168-8.391-4.9739-9.2903-12.568,7.0401-10.454-6.5496,0.31443-12.851" inkscape:transform-center-x="-39.943697" inkscape:transform-center-y="34.48104" inkscape:connector-curvature="0" stroke-width="5.82608271" sodipodi:nodetypes="ccccccccccccccccccc"/>
			<path d="m63.542,82.002,25.738,13.067m32.336,18.97,24.156,17.499" sodipodi:nodetypes="cccc" inkscape:connector-curvature="0" stroke-width="5.82608271"/>
			<path d="m142.93,113.39,0.23703-12.572,10.713-6.6879,12.84,8.383,6.8699-9.3103-15.988-9.5936,12.489-7.6904,14.016,7.2627,4.769-9.2826-14.918-6.9995,1.3299-15.121-10.622-0.88665-0.66858,13.687-12.455,7.2871-0.1826-16.466-10.533-0.3376-0.18687,14.404-11.375,5.541-10.207-6.6872" sodipodi:nodetypes="ccccccccccccccccccc" inkscape:transform-center-y="-13.956972" inkscape:connector-curvature="0" stroke-width="5.82608271" inkscape:transform-center-x="-54.141652"/>
			<path d="m104.78,55.367c-0.68291,29.122-0.25609,10.921-0.68291,29.122m-0.939,40.043l-0.66624,31.489" sodipodi:nodetypes="cccc" inkscape:connector-curvature="0" stroke-width="5.82608271"/>
			<path d="m65.152,97.079-0.23703,12.572-10.713,6.6879-12.84-8.383-6.8699,9.3103,15.988,9.5936-12.489,7.6904-14.016-7.2627-4.769,9.2826,14.918,6.9995-1.3299,15.121,10.622,0.88665,0.66859-13.687,12.455-7.2871,0.18261,16.466,10.533,0.3376,0.18686-14.404,10.898-6.0366,9.9853,6.5333" inkscape:transform-center-x="54.141651" inkscape:transform-center-y="13.956972" inkscape:connector-curvature="0" stroke-width="5.82608271" sodipodi:nodetypes="ccccccccccccccccccc"/>
			<path d="m85.128,116.83-22.879,13.884m59.795-34.872c7.366-3.4696,22.098-10.409,25.023-13.007" sodipodi:nodetypes="cccc" inkscape:connector-curvature="0" stroke-width="5.82608271"/>
			<path sodipodi:sides="6" inkscape:flatsided="true" stroke-width="5.82608318" transform="matrix(0.9841075,-0.1775737,0.1775737,0.9841075,-16.438014,21.296629)" inkscape:rounded="0" sodipodi:r1="32.961483" sodipodi:r2="28.545481" sodipodi:arg1="0.73625743" sodipodi:arg2="1.2598562" sodipodi:type="star" d="M127.84,126.7,96.464,136.78,72.04,114.65,78.996,82.431,110.38,72.346,134.8,94.481z" inkscape:randomized="0" sodipodi:cy="104.56537" sodipodi:cx="103.42049"/>
			<path sodipodi:sides="6" inkscape:flatsided="true" stroke-width="5.82608318" transform="matrix(0.9841075,-0.1775737,0.1775737,0.9841075,-17.033189,20.147302)" inkscape:rounded="0" sodipodi:r1="19.206795" sodipodi:r2="16.61281" sodipodi:arg1="0.71509174" sodipodi:arg2="1.2386905" sodipodi:type="star" d="m118.3,117.92-18.157,6.2621-14.502-12.594,3.6555-18.856,18.157-6.2621,14.502,12.594z" inkscape:randomized="0" sodipodi:cy="105.32862" sodipodi:cx="103.80212"/>
		</g>
		<path inkscape:connector-curvature="0" fill="#cadfff" d="m169.9,101.23c-11.712,6.771-23.775,13.117-35.315,20.087-1.5663,2.9108-0.66637,6.7342-1.1099,10.028-0.16895,10.882-0.28148,21.861,0.24659,32.683,1.8662,2.8643,5.8991,3.7758,8.6131,5.8691,8.9899,5.2127,17.798,10.778,26.997,15.601,3.4305-0.031,6.1934-2.9779,9.3146-4.2174,9.3047-5.26,18.826-10.316,27.894-15.885,1.5979-3.0369,0.26878-7.0296,0.70368-10.439-0.12311-10.689,0.24572-21.47-0.18279-32.101-1.8517-2.8768-5.9025-3.7874-8.6162-5.8858-9.0292-5.2102-17.887-10.889-27.023-15.808-0.54371-0.0787-1.0164-0.29463-1.5221,0.0673zm1.0417,13.369c7.9924,4.6003,16.552,8.6746,24.102,13.953,0.61962,9.4246,0.25118,18.985,0.36302,28.458-8.3242,4.7659-16.627,10.169-24.97,14.505-8.447-4.5237-16.689-9.3484-25.064-14.063,0.0105-9.6701,0.0211-19.34,0.0316-29.01,8.2954-4.7499,16.369-9.986,24.891-14.189l0.44505,0.23881,0.20208,0.10843z"/>
		<path inkscape:connector-curvature="0" fill="#cadfff" d="m187.36,23.169c-5.7711,3.5124-10.993,7.8781-16.604,11.648-5.1679-3.1121-10.059-6.8178-15.2-9.8174-3.3804-0.48385-4.8929,3.7377-6.4555,6.0293-1.6649,2.2835,0.76499,4.3182,2.7937,5.0192,3.6238,2.1859,7.2213,4.4147,10.828,6.6291,0.41774,7.7053,0.70671,15.421,0.64713,23.139-6.5662-3.3523-12.96-7.2346-19.615-10.304-3.0876-0.03351-3.6781,4.181-5.1649,6.3741-1.4104,2.0104-0.30797,4.5233,2.0668,5.052,4.1597,2.2882,8.276,4.6524,12.423,7.0224v18.814c-5.0776,2.9086-10.155,5.8181-15.231,8.7284-5.6613-2.8617-11.322-5.7237-16.983-8.5863-0.0219-6.5764,0.90227-13.299,0.26706-19.784-1.8626-2.0374-5.3151-0.69806-7.8712-1.4896-3.7091-1.517-5.1322,2.2208-4.3756,5.2687-0.0221,6.8974,0.0744,13.797-0.15784,20.692-6.8908-3.4684-13.758-6.9735-20.629-10.48-0.83218-6.6209-0.59247-13.491-1.9133-19.965-2.1525-1.8423-5.6577-0.55658-8.3777-0.44314-3.847,1.1188-1.5496,5.8449-1.6598,8.5881,0.31944,4.4806,1.3009,9.2063,1.2179,13.556-5.4303,3.372-11.766,5.3262-16.996,8.8961-0.92722,2.7713,1.8148,5.524,2.9648,8.0713,1.9062,3.2361,5.458-0.099,7.7498-1.0891,3.1659-1.5058,6.2911-3.8898,9.5333-4.814,6.6788,3.4236,13.735,7.0512,19.951,10.749-6.0088,4.2611-12.864,7.5688-18.535,12.284-0.96065,3.1685,2.3381,5.8298,3.414,8.5823,2.7481,2.509,5.719-1.7176,8.3952-2.6368,2.9883-1.7653,5.9629-3.5562,9.0141-5.1919,5.4461,2.9359,10.768,6.1037,16.131,9.2019v17.678c-5.3596,3.5537-10.622,7.1217-16.052,10.559-5.5233-3.0253-10.583-7.0509-16.313-9.5888-3.3317,0.47386-5.0458,4.3377-6.7472,6.8582-1.7971,2.7516,1.4779,4.5808,3.5877,5.5434,5.7355,3.3964,11.627,6.59,17.341,10.051-6.4383,4.1985-12.879,8.6839-19.54,12.359-6.1955-2.2272-11.801-6.0823-17.973-8.1502-2.6709,0.99027-3.3958,4.6904-4.4718,7.2189-1.0074,3.6992,4.074,4.0718,6.2548,5.5154,4.0877,1.9142,8.3822,3.5822,12.37,5.6436,0.13519,6.256-0.85285,12.441-0.63134,18.688,1.6552,2.9318,5.8467,1.4495,8.5758,2.2404,4.0537,0.25751,2.4773-4.8743,2.82-7.4174,0.0518-3.6025,0.1644-7.1565,0.58399-10.733,6.4623-3.9278,12.813-8.0396,19.367-11.806,0.53481,7.3231,0.2526,14.747,1.1364,22.002,1.9069,2.94,6.2577,1.3456,9.1703,1.8151,3.5427-1.1148,1.4362-5.7955,2.0045-8.5705v-10.828c5.4169-3.0812,10.637-6.3289,16.162-9.1861,5.0734,2.8845,10.388,5.845,15.073,9.0914,0.70283,6.2803,0.92159,12.604,1.3258,18.909-5.4198,2.9607-11.209,6.0213-16.462,8.8704-1.8306,2.7163,0.96518,5.8768,1.8151,8.5232,0.62637,2.1289,3.0062,3.872,4.9876,2.115,6.5798-3.5209,13.184-7.8116,19.603-11.096,0.5382,7.6289,0.78892,15.28,1.4363,22.918-5.3504,3.6948-10.881,7.1751-16.052,11.096-1.5614,2.8292,1.8067,5.2065,3.0462,7.5604,1.5445,2.9803,4.7507,0.68438,6.4555-0.84692,4.39-3.1476,8.7013-6.4009,13.164-9.3967,5.2151,2.9656,10.193,7.0452,15.484,9.7701,3.2155,0.52993,4.4788-3.6494,6.1398-5.6821,1.9133-2.6692-1.0713-4.9035-3.2988-5.8557-3.3972-2.0927-6.8211-4.1417-10.228-6.2188-0.26293-7.6967-0.60915-15.391-0.75761-23.091,6.4843,3.2243,12.819,6.8712,19.382,9.991,3.1805,0.28172,3.8508-3.7569,5.4769-5.6979,1.6636-1.8377,0.79053-4.5209-1.5822-5.1662-4.304-2.5113-8.6592-4.9394-12.986-7.4134v-18.372c4.9842-3.2672,10.253-6.0729,15.373-9.1229,5.6904,2.8295,11.343,5.6732,17.046,8.4758,0.0196,6.5024-0.94072,13.153-0.31442,19.563,2.5898,2.2194,6.8291,1.4484,10.148,2.124,3.6813-0.67134,1.6898-5.4219,2.1939-8.0496,0.005-6.0242-0.0418-12.05,0.12627-18.072,6.8939,3.44,13.802,6.9268,20.598,10.48,0.78138,6.5188,0.38237,13.299,1.8981,19.66,1.8477,2.4232,5.5572,0.48575,8.2192,0.55931,3.642-0.55674,1.945-4.9587,1.9167-7.4446-0.18647-4.8092-1.7506-9.6667-1.2064-14.432,2.3152-2.4987,6.3246-3.0287,9.1819-4.8784,2.4636-1.6348,6.2184-2.1902,7.5645-5.0179-0.23967-3.2622-2.0781-6.5538-4.1511-8.9651-3.6409,0.2858-6.5475,3.3141-9.9187,4.6912-2.0073,0.96679-3.9288,2.3908-6.0859,2.948-6.7404-3.4898-13.473-7.1369-20.14-10.701,6.1119-4.0182,12.509-7.6268,18.467-11.869,1.693-2.7721-1.4299-5.5866-2.5885-7.9865-1.8423-3.1898-5.3705-0.62695-7.5067,0.76065-3.5586,1.9591-6.8981,4.3527-10.613,6.0105-5.3022-3.0302-10.581-6.2796-15.863-9.4228,0.0137-5.8926,0.0188-11.785,0.0158-17.678,5.333-3.47,10.668-6.9373,16.005-10.401,5.5168,3.1908,10.695,7.2175,16.428,9.8829,2.9495,0.14305,3.8957-3.697,5.6074-5.5589,1.6891-1.8512,2.0208-5.2467-0.90138-6.1234-6.2778-3.7038-12.717-7.1563-18.909-11.001,6.3502-4.3183,12.822-8.4464,19.256-12.643,5.8117,2.6984,11.479,5.7439,17.394,8.1917,3.1882-0.15503,3.6368-4.2417,5.0981-6.4239,1.6956-2.5492-1.356-4.4084-3.5671-4.9876-5.0704-2.2734-10.202-4.4081-15.2-6.8343,0.11363-6.2685,0.95298-12.601,1.0931-18.874-1.1877-3.088-5.5128-1.1556-8.1168-1.6923-4.3821-0.54966-3.0855,4.8811-3.5355,7.5761-0.18357,3.4065-0.3479,6.8157-0.34724,10.228-6.5316,4.0242-13.065,8.046-19.603,12.059-0.43101-7.4175-0.33743-14.933-0.80506-22.297-1.606-2.8807-5.8722-0.93789-8.6336-1.5048-4.261-0.01807-2.356,5.352-2.7725,8.0654-0.009,3.7197-0.004,7.4394-0.005,11.159-5.6747,2.9193-11.346,5.8446-17.015,8.7757-4.4842-3.0921-9.5022-5.6462-14.047-8.4284-1.4381-5.887-0.88047-12.282-1.5201-18.387,0.92734-2.4277,5.0608-3.0421,7.2572-4.7496,3.0638-1.9758,6.8944-3.1957,9.5836-5.5899,1.4731-2.6239-1.6398-5.311-2.3172-7.8843-0.63608-3.718-4.3226-3.4466-6.5422-1.2366-6.0146,3.4822-11.973,7.0626-18.031,10.462-0.5187-7.7558-0.8958-15.563-1.0102-23.36,5.2108-3.5788,10.524-7.0212,15.689-10.654,1.6881-2.8248-1.7761-5.2973-3.0462-7.5761-0.72298-1.0689-1.7672-1.8454-3.1409-1.4679zm-16.304,50.886c2.5583,0.02707,1.4522,3.4571,1.7767,5.0665,0.35113,5.808-0.3051,11.809,0.62257,17.493,4.6236,3.6553,10.358,6.2386,15.4,9.4887,7.2054,3.9417,13.932,8.9184,21.581,11.94,3.6398,0.0996,6.433-3.2156,9.6704-4.5502,3.1327-1.665,6.2396-4.0254,9.5698-5.062,1.497,0.55564,2.3589,2.8738,0.50507,3.6618-5.3935,4.2201-11.987,6.8282-17.284,11.047-0.93483,5.5106-0.37045,11.476-0.72942,17.158-0.0163,8.0852-0.61336,16.283,0.2054,24.297,2.0907,2.8861,6.25,3.8213,9.1429,5.9448,3.139,2.1694,7.4207,3.5116,9.5807,6.708,0.0487,1.9522-2.6943,2.8577-4.009,1.2943-5.6802-2.7613-11.018-6.5133-16.778-8.9178-3.7073,0.26012-6.6865,3.32-10.085,4.6973-8.8993,5.0923-18.056,9.9224-26.745,15.295-1.6053,3.0242-0.34535,7.009-0.81732,10.406-0.3293,4.5096,0.40012,9.3484-0.7229,13.669-1.4082,1.501-4.353,0.1523-3.2957-2.1461-0.28094-6.976-0.0556-14.058-0.63933-20.97-2.0543-2.9123-6.198-3.9198-9.0624-6.088-8.1514-4.6788-16.142-9.8078-24.403-14.19-3.2578,0.0851-5.8738,3.1472-8.8699,4.4126-3.8376,1.8531-7.14,5.0532-11.245,6.2139-2.2514,0.0992-2.6955-3.4207-0.41038-3.9617,4.5329-3.4684,10.139-5.7063,14.522-9.3267,0.98591-5.6527,0.56564-11.756,0.89125-17.584,0.0443-8.7572,0.37887-17.607-0.0492-26.309-1.8712-2.8466-5.9552-3.689-8.7034-5.7164-2.7047-1.832-6.2208-3.0456-8.1286-5.7452-0.10873-1.7369,1.8875-2.7811,3.3304-1.6573,5.2853,2.0454,9.7399,6.0794,15.105,7.7024,12.203-6.7997,24.57-13.537,36.514-20.702,1.6102-3.0178,0.41168-6.9978,0.91383-10.389,0.33756-4.0111-0.29723-8.4836,0.662-12.201,0.54792-0.50969,1.198-0.99922,1.9847-0.98061z"/>
	</g>
	<g inkscape:label="Envelope" inkscape:groupmode="layer" transform="translate(-30.595698,-15.770777)">
		<g stroke-linejoin="round" transform="matrix(18.142857,0,0,18.142857,25.524269,39.99592)" stroke="#333" stroke-linecap="butt" stroke-dasharray="none" stroke-miterlimit="0" stroke-width="0.44094488">
			<path d="m15.5,5.5-7,6-1,0-7-6" sodipodi:nodetypes="cccc" inkscape:connector-curvature="0" fill="none"/>
			<path d="m15.5,15.5-15,0,7-6,1,0,7,6z" inkscape:connector-curvature="0" fill="#FFF"/>
		</g>
		<path inkscape:connector-curvature="0" fill="none" d="m38.694,147.95c-2.3983,2.1654-0.93942,5.958-1.4863,8.7911-0.37095,51.053-0.3493,102.11,0.09737,153.16-0.73957,2.4676,2.2346,4.8006,4.0498,2.5177,29.712-25.345,59.549-50.622,88.898-76.379,1.7785-2.0367,5.9941-4.2197,4.564-7.3298-17.49-15.49-35.589-30.6-53.355-45.91-13.524-11.55-27.031-23.14-40.599-34.63-0.74528-0.29051-1.3824-0.6476-2.1624-0.22097z"/>
		<path inkscape:connector-curvature="0" fill="none" d="m38.694,147.95c-2.3983,2.1654-0.93942,5.958-1.4863,8.7911-0.37095,51.053-0.3493,102.11,0.09737,153.16-0.73957,2.4676,2.2346,4.8006,4.0498,2.5177,29.712-25.345,59.549-50.622,88.898-76.379,1.7785-2.0367,5.9941-4.2197,4.564-7.3298-17.49-15.49-35.589-30.6-53.355-45.91-13.524-11.55-27.031-23.14-40.599-34.63-0.74528-0.29051-1.3824-0.6476-2.1624-0.22097z"/>
		<path inkscape:connector-curvature="0" fill="#FFF" d="m256.25,272.37c-25.644-21.982-47.083-40.426-47.644-40.986l-1.0185-1.0185,47.561-40.771c26.159-22.424,47.656-40.677,47.771-40.561,0.11569,0.11569,0.15284,36.906,0.0826,81.757l-0.1278,81.547-46.625-39.967z"/>
		<path inkscape:connector-curvature="0" fill="#fff9f9" d="m39.483,230.44c0-49.855,0.18008-80.478,0.47218-80.298,1.7077,1.0554,93.687,80.194,93.535,80.478-0.23995,0.44986-93.512,80.409-93.796,80.409-0.11606,0-0.21103-36.265-0.21103-80.589z"/>
	</g>
</svg>
